<svg viewBox="0 0 128 128"><ellipse cx="63" cy="49" fill="#f9a0e5" rx="24" ry="16" transform="rotate(-19 63 49)"/><path fill="#fff" d="m37 130 23-84 31 2 7 37-18 4 7 41z"/><path fill="#7fdbff" d="M39 78q-7-4-2-24 9-19 18-17c7 3 5 13 2 24q-8 19-18 17"/><path fill="#fff" d="m58 57 4-22 12 18zm20-5 11-17 3 21z"/><circle cx="68" cy="64" r="5" fill="#222"/><circle cx="88" cy="64" r="5" fill="#222"/><ellipse cx="87" cy="84" fill="#fde8f6" rx="11" ry="10"/><path fill="#ffdc00" d="m71 49 7-35 2 35z"/><circle cx="67" cy="63" r="1" fill="#fff"/><circle cx="86" cy="63" r="1" fill="#fff"/><ellipse cx="85" cy="82" fill="#f9a0e5" rx="2" ry="2"/><ellipse cx="94" cy="82" fill="#f9a0e5" rx="2" ry="2"/><g fill="none" stroke-linecap="round" stroke-width="21"><path stroke="#f9a0e5" d="m46 62-12 59"/><path stroke="#7fdbff" d="m41 86-12 60"/></g><path fill="none" stroke="#fff" stroke-linecap="round" stroke-width="39" d="m61 112-64 8"/><path fill="#7fdbff" d="m80 43-8 8h5l-4 4 6-2-4 5s7-1 9-4q3-6 1-11c-1-2-6-6-5 0"/></svg>